<?xml version="1.0" encoding="UTF-8" standalone="no"?>
<!-- Generator: Adobe Illustrator 19.0.0, SVG Export Plug-In . SVG Version: 6.00 Build 0)  -->

<svg
   xmlns:dc="http://purl.org/dc/elements/1.1/"
   xmlns:cc="http://creativecommons.org/ns#"
   xmlns:rdf="http://www.w3.org/1999/02/22-rdf-syntax-ns#"
   xmlns:svg="http://www.w3.org/2000/svg"
   xmlns="http://www.w3.org/2000/svg"
   xmlns:sodipodi="http://sodipodi.sourceforge.net/DTD/sodipodi-0.dtd"
   xmlns:inkscape="http://www.inkscape.org/namespaces/inkscape"
   version="1.1"
   id="Layer_1"
   x="0px"
   y="0px"
   viewBox="0 0 32 32"
   xml:space="preserve"
   inkscape:version="0.91 r13725"
   sodipodi:docname="check.svg"
   width="32"
   height="32"><metadata
     id="metadata4908"><rdf:RDF><cc:Work
         rdf:about=""><dc:format>image/svg+xml</dc:format><dc:type
           rdf:resource="http://purl.org/dc/dcmitype/StillImage" /><dc:title></dc:title></cc:Work></rdf:RDF></metadata><defs
     id="defs4906" /><sodipodi:namedview
     pagecolor="#ffffff"
     bordercolor="#666666"
     borderopacity="1"
     objecttolerance="10"
     gridtolerance="10"
     guidetolerance="10"
     inkscape:pageopacity="0"
     inkscape:pageshadow="2"
     inkscape:window-width="1280"
     inkscape:window-height="941"
     id="namedview4904"
     showgrid="false"
     inkscape:zoom="15.666835"
     inkscape:cx="17.166855"
     inkscape:cy="16.362392"
     inkscape:window-x="0"
     inkscape:window-y="28"
     inkscape:window-maximized="1"
     inkscape:current-layer="Layer_1" /><path
     style="fill:#ffffff"
     d="m 313.395,-366.071 -238.913,0 c -12.552,0 -22.726,10.175 -22.726,22.726 l 0,238.911 c 0,12.552 10.175,22.726 22.726,22.726 l 238.911,0 c 12.552,0 22.726,-10.175 22.726,-22.726 l 0,-238.91 c 0.002,-12.551 -10.174,-22.727 -22.724,-22.727 z"
     id="path4868"
     inkscape:connector-curvature="0" /><path
     style="fill:#ffffff;fill-opacity:1"
     d="m 11.464356,31.8 c -0.680615,0 -1.341036,-0.36505 -1.8360906,-1.03183 L 0.99442198,19.141052 C -0.04594041,17.739887 -0.06723092,15.43895 0.9468244,14.001525 1.96086,12.56399 3.6263898,12.534881 4.6668213,13.935857 l 6.3116757,8.499959 C 13.505908,17.458381 18.777654,8.710211 27.750634,0.77395466 28.974633,-0.30843492 30.601274,0.18511788 31.384502,1.8753438 32.167956,3.5658857 31.810934,5.8135951 30.58738,6.8958859 18.535528,17.555323 13.842299,29.72624 13.796322,29.847987 c -0.384898,1.018242 -1.095603,1.725274 -1.916682,1.906569 -0.138478,0.0306 -0.277242,0.04544 -0.415343,0.04544 z"
     id="path4872"
     inkscape:connector-curvature="0"
     inkscape:export-filename="/home/an-ko/Изображения/SVG/check.svg"
     inkscape:export-xdpi="90"
     inkscape:export-ydpi="90" /><g
     id="g4874"
     transform="translate(0,-480)" /><g
     id="g4876"
     transform="translate(0,-480)" /><g
     id="g4878"
     transform="translate(0,-480)" /><g
     id="g4880"
     transform="translate(0,-480)" /><g
     id="g4882"
     transform="translate(0,-480)" /><g
     id="g4884"
     transform="translate(0,-480)" /><g
     id="g4886"
     transform="translate(0,-480)" /><g
     id="g4888"
     transform="translate(0,-480)" /><g
     id="g4890"
     transform="translate(0,-480)" /><g
     id="g4892"
     transform="translate(0,-480)" /><g
     id="g4894"
     transform="translate(0,-480)" /><g
     id="g4896"
     transform="translate(0,-480)" /><g
     id="g4898"
     transform="translate(0,-480)" /><g
     id="g4900"
     transform="translate(0,-480)" /><g
     id="g4902"
     transform="translate(0,-480)" /></svg>