<svg id="Layer_1" data-name="Layer 1" xmlns="http://www.w3.org/2000/svg" viewBox="0 0 46 46"><defs><style>.cls-1{fill:#87bb40;fill-rule:evenodd;}</style></defs><title>Artboard 4 copy</title><path id="github-1" class="cls-1" d="M23,.5C10.58.5.5,10.83.5,23.57A23,23,0,0,0,15.89,45.46c1.12.21,1.48-.5,1.48-1.11v-4.3c-6.25,1.4-7.56-2.72-7.56-2.72C8.79,34.67,7.32,34,7.32,34c-2.05-1.43.15-1.4.15-1.4a4.74,4.74,0,0,1,3.45,2.37c2,3.53,5.26,2.51,6.55,1.92a4.94,4.94,0,0,1,1.42-3.08c-5-.59-10.25-2.57-10.25-11.4A9.08,9.08,0,0,1,11,16.17a8.51,8.51,0,0,1,.22-6.1s1.89-.62,6.19,2.36a21,21,0,0,1,11.27,0c4.29-3,6.18-2.36,6.18-2.36a8.51,8.51,0,0,1,.22,6.1,9.07,9.07,0,0,1,2.31,6.2c0,8.86-5.26,10.81-10.27,11.38A5.57,5.57,0,0,1,28.62,38v6.33c0,.61.37,1.33,1.51,1.11A23,23,0,0,0,45.5,23.57C45.5,10.83,35.43.5,23,.5Z"/></svg>