<svg id="Layer_1" data-name="Layer 1" xmlns="http://www.w3.org/2000/svg" viewBox="0 0 46 46"><defs><style>.cls-1{fill:#87bb40;}</style></defs><title>Artboard 4 copy 2</title><path class="cls-1" d="M23,.5A22.5,22.5,0,1,0,45.5,23,22.5,22.5,0,0,0,23,.5ZM34.67,27.09,32,28l.92,2.75a2.12,2.12,0,0,1-1.34,2.68,2.18,2.18,0,0,1-2.7-1.34L28,29.32l-5.48,1.83.92,2.75a2.11,2.11,0,0,1-2,2.79,2.16,2.16,0,0,1-2-1.44l-.92-2.76-2.66.89A2.17,2.17,0,0,1,13.1,32a2.13,2.13,0,0,1,1.35-2.69l2.66-.88-1.78-5.28-2.66.88a2.13,2.13,0,0,1-2.79-2,2.11,2.11,0,0,1,1.45-2L14,19.16l-.92-2.75a2.13,2.13,0,0,1,4-1.35L18,17.81,23.51,16l-.92-2.75a2.13,2.13,0,0,1,4-1.34l.92,2.75,2.66-.89a2.12,2.12,0,1,1,1.34,4l-2.66.89,1.78,5.27,2.66-.88a2.12,2.12,0,1,1,1.34,4Zm-9.83-7-5.48,1.83,1.77,5.28,5.48-1.83Z"/></svg>