<svg id="Layer_1" data-name="Layer 1" xmlns="http://www.w3.org/2000/svg" viewBox="0 0 46 46"><defs><style>.cls-1{fill:#87bb40;}</style></defs><title>Artboard 4</title><path id="twitter-4" class="cls-1" d="M23,.5A22.5,22.5,0,1,0,45.5,23,22.5,22.5,0,0,0,23,.5ZM34.37,18.58a15.31,15.31,0,0,1-23.56,13.6,10.81,10.81,0,0,0,8-2.23,5.4,5.4,0,0,1-5-3.74,5.26,5.26,0,0,0,2.44-.09,5.39,5.39,0,0,1-4.32-5.35,5.27,5.27,0,0,0,2.44.68,5.39,5.39,0,0,1-1.67-7.19,15.24,15.24,0,0,0,11.1,5.62A5.39,5.39,0,0,1,32.92,15a11,11,0,0,0,3.42-1.3,5.43,5.43,0,0,1-2.37,3,10.62,10.62,0,0,0,3.09-.84A10.77,10.77,0,0,1,34.37,18.58Z"/></svg>