<?xml version="1.0" standalone="no"?>
<!DOCTYPE svg PUBLIC "-//W3C//DTD SVG 20010904//EN"
 "http://www.w3.org/TR/2001/REC-SVG-20010904/DTD/svg10.dtd">
<svg version="1.0" xmlns="http://www.w3.org/2000/svg"
 width="260.000000pt" height="260.000000pt" viewBox="0 0 260.000000 260.000000"
 preserveAspectRatio="xMidYMid meet">
<metadata>
Created by potrace 1.11, written by Peter Selinger 2001-2013
</metadata>
<g transform="translate(0.000000,260.000000) scale(0.100000,-0.100000)"
fill="#000000" stroke="none">
<path d="M1025 2409 c-148 -83 -292 -164 -320 -179 -27 -15 -108 -60 -180
-100 -72 -40 -159 -89 -195 -108 -36 -19 -73 -41 -84 -48 -17 -12 -18 -32 -17
-366 0 -194 0 -377 1 -406 0 -45 3 -54 23 -63 12 -5 31 -15 42 -22 24 -15 478
-274 518 -296 16 -9 36 -21 45 -26 9 -6 60 -34 112 -64 52 -30 109 -62 125
-71 17 -10 66 -38 110 -64 44 -25 84 -46 88 -46 7 0 216 111 420 224 23 13 98
54 167 91 69 37 144 78 168 91 23 13 45 24 47 24 3 0 5 -31 5 -68 l0 -68 -302
-169 c-167 -93 -318 -177 -336 -187 -18 -10 -64 -36 -102 -57 l-68 -39 -43 25
c-328 189 -772 446 -880 509 -69 41 -130 74 -135 74 -7 0 -9 -98 -4 -331 0
-23 23 -39 217 -150 120 -68 222 -126 228 -128 5 -2 26 -14 45 -26 19 -12 55
-33 80 -47 100 -55 368 -207 415 -235 66 -38 85 -45 99 -34 6 5 31 20 56 34
25 13 167 92 315 175 149 82 302 167 341 188 39 22 132 73 207 114 l137 75 1
65 c2 277 0 733 -5 737 -3 3 -11 1 -18 -4 -7 -6 -76 -43 -153 -83 -77 -40
-171 -89 -210 -110 -38 -20 -119 -63 -180 -95 -60 -32 -150 -79 -200 -105 -49
-26 -140 -73 -201 -105 l-112 -58 -73 43 c-41 23 -89 51 -108 62 -18 10 -130
76 -250 145 -119 69 -229 134 -246 143 -105 60 -95 47 -95 129 0 64 2 72 17
67 13 -5 264 -144 516 -285 18 -10 59 -33 92 -51 33 -18 80 -44 105 -58 l46
-25 529 267 c292 147 534 271 538 275 8 8 13 368 6 375 -4 4 -277 157 -399
224 -36 19 -114 63 -175 97 -60 34 -130 73 -155 87 -25 14 -61 34 -80 45 -133
75 -257 143 -261 143 -2 0 -125 -68 -274 -151z m510 -310 c129 -72 233 -135
230 -139 -3 -5 -18 -15 -33 -23 -15 -7 -116 -64 -225 -125 -110 -62 -201 -112
-204 -112 -6 0 -169 88 -278 150 -38 22 -98 54 -133 72 -34 18 -61 36 -59 41
2 6 447 261 464 266 1 1 108 -58 238 -130z"/>
</g>
</svg>
